<?xml version="1.0" encoding="UTF-8" standalone="no"?><!DOCTYPE svg PUBLIC "-//W3C//DTD SVG 1.1//EN" "http://www.w3.org/Graphics/SVG/1.1/DTD/svg11.dtd"><svg width="100%" height="100%" viewBox="0 0 1091 982" version="1.1" xmlns="http://www.w3.org/2000/svg" xmlns:xlink="http://www.w3.org/1999/xlink" xml:space="preserve" xmlns:serif="http://www.serif.com/" style="fill-rule:evenodd;clip-rule:evenodd;stroke-linejoin:round;stroke-miterlimit:2;"><path d="M142.177,6.069c-47.569,28.244 -141.288,135.911 -142.177,164.146l0,46.738c0,59.244 55.378,111.315 105.657,111.315c60.373,0 110.675,-50.035 110.68,-109.422c0,59.386 48.578,109.422 108.955,109.422c60.382,0 107.4,-50.035 107.4,-109.422c0,59.386 51.653,109.422 112.031,109.422l1.093,0c60.382,0 112.035,-50.035 112.035,-109.422c0,59.386 47.022,109.422 107.395,109.422c60.378,0 108.955,-50.035 108.955,-109.422c0,59.386 50.311,109.422 110.68,109.422c50.28,0 105.657,-52.062 105.657,-111.315l0,-46.738c-0.889,-28.24 -94.609,-135.911 -142.168,-164.146c-147.848,-5.191 -250.346,-6.089 -403.105,-6.067c-152.755,0.013 -361.012,2.4 -403.096,6.067l0.009,0Zm289.75,294.297c-5.773,10.063 -12.924,19.271 -21.244,27.355c-22.791,22.284 -54.031,36.098 -88.471,36.098c-33.129,0.031 -64.981,-12.944 -88.657,-36.115c-8.258,-8.089 -14.533,-16.738 -20.28,-26.809l-0.027,0.018c-5.742,10.089 -13.742,18.733 -22.018,26.831c-23.686,23.154 -55.534,36.118 -88.657,36.089c-4.151,-0 -8.471,-1.147 -11.964,-2.347c-4.853,50.542 -6.902,98.844 -7.627,134.062l-0.009,0.2c-0.089,17.884 -0.178,32.591 -0.267,53.022c0.933,106.044 -10.502,343.705 46.755,402.101c88.729,20.689 251.999,30.111 415.798,30.169l0.027,0c163.795,-0.058 327.065,-9.48 415.794,-30.169c57.258,-58.4 45.822,-296.061 46.755,-402.105c-0.098,-20.427 -0.178,-35.133 -0.267,-53.022l-0.013,-0.2c-0.72,-35.227 -2.769,-83.524 -7.622,-134.066c-3.493,1.2 -7.809,2.347 -11.964,2.347c-33.123,0.03 -64.971,-12.934 -88.657,-36.089c-8.276,-8.098 -16.275,-16.738 -22.022,-26.831l-0.027,-0.018c-5.751,10.071 -12.022,18.724 -20.28,26.809c-23.676,23.169 -55.526,36.143 -88.653,36.111c-34.435,0 -65.68,-13.822 -88.471,-36.102c-8.321,-8.085 -15.472,-17.292 -21.244,-27.355c-5.711,10.052 -12.796,19.259 -21.049,27.355c-23.683,23.167 -55.537,36.138 -88.666,36.107c-1.2,0 -2.4,-0.053 -3.6,-0.089l-0.031,0c-1.2,0.036 -2.4,0.089 -3.613,0.089c-33.129,0.033 -64.983,-12.937 -88.666,-36.102c-8.253,-8.096 -15.338,-17.303 -21.049,-27.355l-0.013,0.013Zm-91.049,117.733l-0.009,0.044l0.067,0c36.058,0.076 68.089,0 107.777,43.315c31.235,-3.276 63.875,-4.911 96.542,-4.862l0.027,0c32.667,-0.044 65.306,1.587 96.546,4.862c39.689,-43.32 71.72,-43.244 107.777,-43.315l0.062,0l-0.009,-0.044c17.035,0 85.182,0 132.666,133.364l51.004,182.955c37.795,136.106 -12.102,139.435 -74.342,139.555c-92.302,-3.436 -143.408,-70.466 -143.408,-137.488c-51.093,8.373 -110.697,12.56 -170.302,12.564l-0.027,0c-59.609,0 -119.213,-4.191 -170.302,-12.564c0,67.022 -51.111,134.053 -143.408,137.488c-62.24,-0.12 -112.133,-3.444 -74.337,-139.555l51.018,-182.95c47.484,-133.364 115.631,-133.364 132.666,-133.364l-0.009,-0.004Zm204.377,104.808l0,0.027c-0.089,0.089 -97.168,89.244 -114.622,120.955l63.573,-2.547l0,55.44c0,2.596 25.511,1.538 51.049,0.356l0.027,0c25.529,1.182 51.044,2.24 51.044,-0.356l0,-55.44l63.573,2.547c-17.458,-31.711 -114.622,-120.955 -114.622,-120.955l0,-0.027l-0.013,0.009l-0.009,-0.009Z" style="fill:#fa5c5c;fill-rule:nonzero;"/></svg>