<?xml version="1.0" encoding="UTF-8" standalone="no"?><!DOCTYPE svg PUBLIC "-//W3C//DTD SVG 1.1//EN" "http://www.w3.org/Graphics/SVG/1.1/DTD/svg11.dtd"><svg width="100%" height="100%" viewBox="0 0 2134 2134" version="1.1" xmlns="http://www.w3.org/2000/svg" xmlns:xlink="http://www.w3.org/1999/xlink" xml:space="preserve" xmlns:serif="http://www.serif.com/" style="fill-rule:evenodd;clip-rule:evenodd;stroke-linejoin:round;stroke-miterlimit:2;"><g><path d="M476.876,646.821c-95.542,0 -172.958,77.458 -172.958,172.958l0,775.908c0,144.124 139.862,238.921 235.362,238.921l793.823,0c95.542,0 172.958,-77.458 172.958,-172.958l0,-461.25c0,-63.667 51.625,-115.333 115.333,-115.333c63.667,0 115.333,51.625 115.333,115.333l0,461.25c0,222.917 -180.708,403.583 -403.583,403.583l-929.561,0c-222.875,0.042 -330.291,-112.609 -330.291,-335.484l-0,-909.97c0,-222.875 180.708,-403.583 403.583,-403.583l461.25,0c63.708,0 115.333,51.625 115.333,115.333c0,63.708 -51.625,115.333 -115.333,115.333l-461.25,0l0,-0.042Zm610.81,-466.048c0,-63.708 51.625,-115.333 115.292,-115.333l749.583,0c63.708,0 115.333,51.625 115.333,115.333l0,749.542c0,63.708 -51.625,115.333 -115.333,115.333c-63.667,0 -115.333,-51.625 -115.333,-115.333l0,-471.167l-552.708,552.708c-45.042,45.042 -118.042,45.042 -163.083,0c-45.042,-45.042 -45.042,-118.042 0,-163.083l552.75,-552.708l-471.208,0c-63.667,0 -115.292,-51.625 -115.292,-115.292Z" style="fill:#453c57;fill-rule:nonzero;stroke:#453c57;stroke-width:114.58px;"/></g></svg>